<svg width="313" height="49" viewBox="0 0 313 49" fill="none" xmlns="http://www.w3.org/2000/svg">
<g opacity="0.8">
<path d="M304.909 23.8143V16.8063H300.431V23.8143C300.626 24.7877 300.626 25.5663 302.573 25.761C304.13 25.9167 304.779 24.5281 304.909 23.8143Z" fill="#0FA3B1" fill-opacity="0.8" stroke="black" stroke-opacity="0.8" stroke-width="0.389334"/>
<path d="M304.909 24.3152V19.1423H300.626V24.3152C300.812 25.0337 300.812 25.6084 302.674 25.7521C304.164 25.867 304.784 24.842 304.909 24.3152Z" fill="#E14A4A" fill-opacity="0.8" stroke="black" stroke-opacity="0.8" stroke-width="0.389334"/>
<path d="M304.909 24.6554V20.6996H300.626V24.6554C300.812 25.2048 300.812 25.6443 302.674 25.7542C304.164 25.8421 304.784 25.0583 304.909 24.6554Z" fill="#E14A4A" fill-opacity="0.8" stroke="black" stroke-opacity="0.8" stroke-width="0.389334"/>
<path d="M304.909 24.9956V22.257H300.626V24.9956C300.812 25.3759 300.812 25.6802 302.674 25.7563C304.164 25.8171 304.784 25.2745 304.909 24.9956Z" fill="#0FA3B1" fill-opacity="0.8" stroke="black" stroke-opacity="0.8" stroke-width="0.389334"/>
<path d="M306.466 10.1876C304.442 11.2777 304.325 15.0543 304.52 16.8063H301.016C301.016 14.9894 300.977 11.122 299.264 10.1876C297.55 9.2532 296.603 10.5769 296.344 11.3556C296.668 11.0312 297.434 10.6548 297.901 11.7449C298.368 12.8351 297.317 13.7565 296.733 14.0809C295.889 14.3405 294.124 14.2367 293.813 11.7449C293.501 9.2532 295.37 8.24093 296.344 8.04627C297.589 7.57907 299.977 9.0196 301.016 9.79827C299.614 7.92947 299.523 4.99648 299.653 3.76359C299.497 2.98493 300.626 1.88181 301.21 1.42759C301.794 0.97337 303.391 0.493191 305.104 2.20626C306.817 3.91933 305.428 7.98138 304.52 9.79827C304.909 9.34404 306.233 8.35773 308.413 8.04627C310.593 7.7348 311.657 10.1227 311.917 11.3556C312.112 12.1343 311.333 13.8863 310.554 14.0809C309.776 14.2756 308.024 14.6649 307.634 12.9129C307.323 11.5113 308.543 11.2907 309.192 11.3556C308.88 9.64253 307.245 9.86316 306.466 10.1876Z" fill="url(#paint0_linear_1619_14264)" stroke="black" stroke-opacity="0.8" stroke-width="0.389334"/>
<path d="M304.714 16.8063C305.337 14.9375 306.791 13.1725 307.439 12.5236C307.439 11.2777 308.607 11.2258 309.191 11.3556C308.724 9.79827 307.829 9.79827 307.439 9.99293C304.48 10.1487 304.39 14.6 304.714 16.8063Z" fill="black" fill-opacity="0.8" stroke="black" stroke-opacity="0.8" stroke-width="0.389334"/>
<path d="M300.887 16.5675C300.264 14.6987 298.811 12.9337 298.162 12.2848C298.162 11.039 296.994 10.9871 296.41 11.1168C296.877 9.5595 297.773 9.5595 298.162 9.75416C301.121 9.9099 301.212 14.3613 300.887 16.5675Z" fill="black" fill-opacity="0.8" stroke="black" stroke-opacity="0.8" stroke-width="0.389334"/>
<path d="M308.608 16.0277C307.207 15.7162 307.245 13.6917 307.44 12.7184L306.272 13.8863V15.4437C306.272 18.4026 307.829 18.753 308.608 18.5584C309.387 18.5584 310.36 16.417 308.608 16.0277Z" fill="black" fill-opacity="0.8" stroke="black" stroke-opacity="0.8" stroke-width="0.389334"/>
<path d="M296.994 16.1782C298.396 15.8667 298.357 13.8422 298.162 12.8689L299.33 14.0368V15.5942C299.33 18.5531 297.773 18.9035 296.994 18.7089C296.216 18.7089 295.242 16.5675 296.994 16.1782Z" fill="black" fill-opacity="0.8" stroke="black" stroke-opacity="0.8" stroke-width="0.389334"/>
<path d="M268.312 23.8143V16.8063H263.835V23.8143C264.029 24.7877 264.029 25.5663 265.976 25.761C267.533 25.9167 268.182 24.5281 268.312 23.8143Z" fill="#0FA3B1" fill-opacity="0.8" stroke="black" stroke-opacity="0.8" stroke-width="0.389334"/>
<path d="M268.312 24.3152V19.1423H264.029V24.3152C264.215 25.0337 264.215 25.6084 266.077 25.7521C267.567 25.867 268.188 24.842 268.312 24.3152Z" fill="#E14A4A" fill-opacity="0.8" stroke="black" stroke-opacity="0.8" stroke-width="0.389334"/>
<path d="M268.312 24.6554V20.6996H264.029V24.6554C264.215 25.2048 264.215 25.6443 266.077 25.7542C267.567 25.8421 268.188 25.0583 268.312 24.6554Z" fill="#E14A4A" fill-opacity="0.8" stroke="black" stroke-opacity="0.8" stroke-width="0.389334"/>
<path d="M268.312 24.9956V22.257H264.029V24.9956C264.215 25.3759 264.215 25.6802 266.077 25.7563C267.567 25.8171 268.188 25.2745 268.312 24.9956Z" fill="#0FA3B1" fill-opacity="0.8" stroke="black" stroke-opacity="0.8" stroke-width="0.389334"/>
<path d="M269.87 10.1876C267.845 11.2777 267.728 15.0543 267.923 16.8063H264.419C264.419 14.9894 264.38 11.122 262.667 10.1876C260.954 9.2532 260.007 10.5769 259.747 11.3556C260.071 11.0312 260.837 10.6548 261.304 11.7449C261.772 12.8351 260.72 13.7565 260.136 14.0809C259.293 14.3405 257.528 14.2367 257.216 11.7449C256.905 9.2532 258.774 8.24093 259.747 8.04627C260.993 7.57907 263.381 9.0196 264.419 9.79827C263.017 7.92947 262.927 4.99648 263.056 3.76359C262.901 2.98493 264.03 1.88181 264.614 1.42759C265.198 0.97337 266.794 0.493191 268.507 2.20626C270.22 3.91933 268.831 7.98138 267.923 9.79827C268.312 9.34404 269.636 8.35773 271.816 8.04627C273.997 7.7348 275.061 10.1227 275.32 11.3556C275.515 12.1343 274.736 13.8863 273.958 14.0809C273.179 14.2756 271.427 14.6649 271.038 12.9129C270.726 11.5113 271.946 11.2907 272.595 11.3556C272.284 9.64253 270.648 9.86316 269.87 10.1876Z" fill="url(#paint1_linear_1619_14264)" stroke="black" stroke-opacity="0.8" stroke-width="0.389334"/>
<path d="M268.118 16.8063C268.74 14.9375 270.194 13.1725 270.843 12.5236C270.843 11.2777 272.011 11.2258 272.595 11.3556C272.128 9.79827 271.232 9.79827 270.843 9.99293C267.884 10.1487 267.793 14.6 268.118 16.8063Z" fill="black" fill-opacity="0.8" stroke="black" stroke-opacity="0.8" stroke-width="0.389334"/>
<path d="M264.291 16.5675C263.668 14.6987 262.215 12.9337 261.566 12.2848C261.566 11.039 260.398 10.9871 259.814 11.1168C260.281 9.5595 261.177 9.5595 261.566 9.75416C264.525 9.9099 264.616 14.3613 264.291 16.5675Z" fill="black" fill-opacity="0.8" stroke="black" stroke-opacity="0.8" stroke-width="0.389334"/>
<path d="M272.012 16.0276C270.61 15.7161 270.649 13.6916 270.844 12.7182L269.676 13.8862V15.4436C269.676 18.4025 271.233 18.7529 272.012 18.5582C272.79 18.5582 273.764 16.4169 272.012 16.0276Z" fill="black" fill-opacity="0.8" stroke="black" stroke-opacity="0.8" stroke-width="0.389334"/>
<path d="M260.398 16.1782C261.799 15.8667 261.761 13.8422 261.566 12.8689L262.734 14.0368V15.5942C262.734 18.5531 261.177 18.9035 260.398 18.7089C259.619 18.7089 258.646 16.5675 260.398 16.1782Z" fill="black" fill-opacity="0.8" stroke="black" stroke-opacity="0.8" stroke-width="0.389334"/>
<path d="M231.713 23.8143V16.8063H227.236V23.8143C227.431 24.7877 227.431 25.5663 229.377 25.761C230.935 25.9167 231.583 24.5281 231.713 23.8143Z" fill="#0FA3B1" fill-opacity="0.8" stroke="black" stroke-opacity="0.8" stroke-width="0.389334"/>
<path d="M231.713 24.315V19.1422H227.431V24.315C227.617 25.0336 227.617 25.6083 229.479 25.7519C230.968 25.8669 231.589 24.8419 231.713 24.315Z" fill="#E14A4A" fill-opacity="0.8" stroke="black" stroke-opacity="0.8" stroke-width="0.389334"/>
<path d="M231.713 24.6552V20.6995H227.431V24.6552C227.617 25.2047 227.617 25.6442 229.479 25.754C230.968 25.842 231.589 25.0581 231.713 24.6552Z" fill="#E14A4A" fill-opacity="0.8" stroke="black" stroke-opacity="0.8" stroke-width="0.389334"/>
<path d="M231.713 24.9954V22.2569H227.431V24.9954C227.617 25.3758 227.617 25.6801 229.479 25.7561C230.968 25.817 231.589 25.2744 231.713 24.9954Z" fill="#0FA3B1" fill-opacity="0.8" stroke="black" stroke-opacity="0.8" stroke-width="0.389334"/>
<path d="M233.271 10.1876C231.246 11.2777 231.13 15.0543 231.324 16.8063H227.82C227.82 14.9894 227.781 11.122 226.068 10.1876C224.355 9.2532 223.408 10.5769 223.148 11.3556C223.473 11.0312 224.238 10.6548 224.706 11.7449C225.173 12.8351 224.122 13.7565 223.538 14.0809C222.694 14.3405 220.929 14.2367 220.618 11.7449C220.306 9.2532 222.175 8.24093 223.148 8.04627C224.394 7.57907 226.782 9.0196 227.82 9.79827C226.419 7.92947 226.328 4.99648 226.458 3.76359C226.302 2.98493 227.431 1.88181 228.015 1.42759C228.599 0.97337 230.195 0.493191 231.908 2.20626C233.621 3.91933 232.233 7.98138 231.324 9.79827C231.714 9.34404 233.037 8.35773 235.218 8.04627C237.398 7.7348 238.462 10.1227 238.722 11.3556C238.916 12.1343 238.138 13.8863 237.359 14.0809C236.58 14.2756 234.828 14.6649 234.439 12.9129C234.127 11.5113 235.347 11.2907 235.996 11.3556C235.685 9.64253 234.05 9.86316 233.271 10.1876Z" fill="url(#paint2_linear_1619_14264)" stroke="black" stroke-opacity="0.8" stroke-width="0.389334"/>
<path d="M231.519 16.8063C232.142 14.9375 233.595 13.1725 234.244 12.5236C234.244 11.2777 235.412 11.2258 235.996 11.3556C235.529 9.79827 234.633 9.79827 234.244 9.99293C231.285 10.1487 231.194 14.6 231.519 16.8063Z" fill="black" fill-opacity="0.8" stroke="black" stroke-opacity="0.8" stroke-width="0.389334"/>
<path d="M227.693 16.5675C227.07 14.6987 225.616 12.9337 224.967 12.2848C224.967 11.039 223.799 10.9871 223.215 11.1168C223.683 9.5595 224.578 9.5595 224.967 9.75416C227.926 9.9099 228.017 14.3613 227.693 16.5675Z" fill="black" fill-opacity="0.8" stroke="black" stroke-opacity="0.8" stroke-width="0.389334"/>
<path d="M235.413 16.0276C234.011 15.7161 234.05 13.6916 234.245 12.7182L233.077 13.8862V15.4436C233.077 18.4025 234.634 18.7529 235.413 18.5582C236.191 18.5582 237.165 16.4169 235.413 16.0276Z" fill="black" fill-opacity="0.8" stroke="black" stroke-opacity="0.8" stroke-width="0.389334"/>
<path d="M223.799 16.1781C225.201 15.8666 225.162 13.8421 224.967 12.8688L226.135 14.0367V15.5941C226.135 18.553 224.578 18.9034 223.799 18.7088C223.02 18.7088 222.047 16.5674 223.799 16.1781Z" fill="black" fill-opacity="0.8" stroke="black" stroke-opacity="0.8" stroke-width="0.389334"/>
<path d="M195.116 23.8143V16.8063H190.638V23.8143C190.833 24.7877 190.833 25.5663 192.78 25.761C194.337 25.9167 194.986 24.5281 195.116 23.8143Z" fill="#0FA3B1" fill-opacity="0.8" stroke="black" stroke-opacity="0.8" stroke-width="0.389334"/>
<path d="M195.116 24.3152V19.1423H190.833V24.3152C191.019 25.0337 191.019 25.6084 192.881 25.7521C194.371 25.867 194.991 24.842 195.116 24.3152Z" fill="#E14A4A" fill-opacity="0.8" stroke="black" stroke-opacity="0.8" stroke-width="0.389334"/>
<path d="M195.116 24.6554V20.6996H190.833V24.6554C191.019 25.2048 191.019 25.6443 192.881 25.7542C194.371 25.8421 194.991 25.0583 195.116 24.6554Z" fill="#E14A4A" fill-opacity="0.8" stroke="black" stroke-opacity="0.8" stroke-width="0.389334"/>
<path d="M195.116 24.9956V22.257H190.833V24.9956C191.019 25.3759 191.019 25.6802 192.881 25.7563C194.371 25.8171 194.991 25.2745 195.116 24.9956Z" fill="#0FA3B1" fill-opacity="0.8" stroke="black" stroke-opacity="0.8" stroke-width="0.389334"/>
<path d="M196.673 10.1876C194.649 11.2777 194.532 15.0543 194.727 16.8063H191.223C191.223 14.9894 191.184 11.122 189.471 10.1876C187.758 9.2532 186.81 10.5769 186.551 11.3556C186.875 11.0312 187.641 10.6548 188.108 11.7449C188.575 12.8351 187.524 13.7565 186.94 14.0809C186.096 14.3405 184.332 14.2367 184.02 11.7449C183.709 9.2532 185.577 8.24093 186.551 8.04627C187.797 7.57907 190.185 9.0196 191.223 9.79827C189.821 7.92947 189.73 4.99648 189.86 3.76359C189.704 2.98493 190.833 1.88181 191.417 1.42759C192.001 0.97337 193.598 0.493191 195.311 2.20626C197.024 3.91933 195.635 7.98138 194.727 9.79827C195.116 9.34404 196.44 8.35773 198.62 8.04627C200.8 7.7348 201.864 10.1227 202.124 11.3556C202.319 12.1343 201.54 13.8863 200.761 14.0809C199.983 14.2756 198.231 14.6649 197.841 12.9129C197.53 11.5113 198.75 11.2907 199.399 11.3556C199.087 9.64253 197.452 9.86316 196.673 10.1876Z" fill="url(#paint3_linear_1619_14264)" stroke="black" stroke-opacity="0.8" stroke-width="0.389334"/>
<path d="M194.921 16.8063C195.544 14.9375 196.998 13.1725 197.647 12.5236C197.647 11.2777 198.815 11.2258 199.399 11.3556C198.931 9.79827 198.036 9.79827 197.647 9.99293C194.688 10.1487 194.597 14.6 194.921 16.8063Z" fill="black" fill-opacity="0.8" stroke="black" stroke-opacity="0.8" stroke-width="0.389334"/>
<path d="M191.095 16.5675C190.472 14.6987 189.019 12.9337 188.37 12.2848C188.37 11.039 187.202 10.9871 186.618 11.1168C187.085 9.5595 187.98 9.5595 188.37 9.75416C191.329 9.9099 191.42 14.3613 191.095 16.5675Z" fill="black" fill-opacity="0.8" stroke="black" stroke-opacity="0.8" stroke-width="0.389334"/>
<path d="M198.815 16.0276C197.414 15.7161 197.453 13.6916 197.647 12.7182L196.479 13.8862V15.4436C196.479 18.4025 198.037 18.7529 198.815 18.5582C199.594 18.5582 200.567 16.4169 198.815 16.0276Z" fill="black" fill-opacity="0.8" stroke="black" stroke-opacity="0.8" stroke-width="0.389334"/>
<path d="M187.202 16.1782C188.603 15.8667 188.564 13.8422 188.37 12.8689L189.538 14.0368V15.5942C189.538 18.5531 187.98 18.9035 187.202 18.7089C186.423 18.7089 185.45 16.5675 187.202 16.1782Z" fill="black" fill-opacity="0.8" stroke="black" stroke-opacity="0.8" stroke-width="0.389334"/>
<path d="M158.519 23.8143V16.8063H154.042V23.8143C154.237 24.7877 154.237 25.5663 156.183 25.761C157.741 25.9167 158.39 24.5281 158.519 23.8143Z" fill="#0FA3B1" fill-opacity="0.8" stroke="black" stroke-opacity="0.8" stroke-width="0.389334"/>
<path d="M158.519 24.3152V19.1423H154.237V24.3152C154.423 25.0337 154.423 25.6084 156.285 25.7521C157.775 25.867 158.395 24.842 158.519 24.3152Z" fill="#E14A4A" fill-opacity="0.8" stroke="black" stroke-opacity="0.8" stroke-width="0.389334"/>
<path d="M158.519 24.6554V20.6996H154.237V24.6554C154.423 25.2048 154.423 25.6443 156.285 25.7542C157.775 25.8421 158.395 25.0583 158.519 24.6554Z" fill="#E14A4A" fill-opacity="0.8" stroke="black" stroke-opacity="0.8" stroke-width="0.389334"/>
<path d="M158.519 24.9956V22.257H154.237V24.9956C154.423 25.3759 154.423 25.6802 156.285 25.7563C157.775 25.8171 158.395 25.2745 158.519 24.9956Z" fill="#0FA3B1" fill-opacity="0.8" stroke="black" stroke-opacity="0.8" stroke-width="0.389334"/>
<path d="M160.077 10.1876C158.053 11.2777 157.936 15.0543 158.13 16.8063H154.626C154.626 14.9894 154.587 11.122 152.874 10.1876C151.161 9.2532 150.214 10.5769 149.954 11.3556C150.279 11.0312 151.045 10.6548 151.512 11.7449C151.979 12.8351 150.928 13.7565 150.344 14.0809C149.5 14.3405 147.735 14.2367 147.424 11.7449C147.112 9.2532 148.981 8.24093 149.954 8.04627C151.2 7.57907 153.588 9.0196 154.626 9.79827C153.225 7.92947 153.134 4.99648 153.264 3.76359C153.108 2.98493 154.237 1.88181 154.821 1.42759C155.405 0.97337 157.001 0.493191 158.714 2.20626C160.427 3.91933 159.039 7.98138 158.13 9.79827C158.52 9.34404 159.843 8.35773 162.024 8.04627C164.204 7.7348 165.268 10.1227 165.528 11.3556C165.722 12.1343 164.944 13.8863 164.165 14.0809C163.386 14.2756 161.634 14.6649 161.245 12.9129C160.934 11.5113 162.154 11.2907 162.802 11.3556C162.491 9.64253 160.856 9.86316 160.077 10.1876Z" fill="url(#paint4_linear_1619_14264)" stroke="black" stroke-opacity="0.8" stroke-width="0.389334"/>
<path d="M158.325 16.8063C158.948 14.9375 160.401 13.1725 161.05 12.5236C161.05 11.2777 162.218 11.2258 162.802 11.3556C162.335 9.79827 161.44 9.79827 161.05 9.99293C158.091 10.1487 158 14.6 158.325 16.8063Z" fill="black" fill-opacity="0.8" stroke="black" stroke-opacity="0.8" stroke-width="0.389334"/>
<path d="M154.499 16.5675C153.876 14.6987 152.422 12.9337 151.773 12.2848C151.773 11.039 150.605 10.9871 150.021 11.1168C150.489 9.5595 151.384 9.5595 151.773 9.75416C154.732 9.9099 154.823 14.3613 154.499 16.5675Z" fill="black" fill-opacity="0.8" stroke="black" stroke-opacity="0.8" stroke-width="0.389334"/>
<path d="M162.219 16.0276C160.817 15.7161 160.856 13.6916 161.051 12.7182L159.883 13.8862V15.4436C159.883 18.4025 161.44 18.7529 162.219 18.5582C162.998 18.5582 163.971 16.4169 162.219 16.0276Z" fill="black" fill-opacity="0.8" stroke="black" stroke-opacity="0.8" stroke-width="0.389334"/>
<path d="M150.605 16.1782C152.007 15.8667 151.968 13.8422 151.773 12.8689L152.941 14.0368V15.5942C152.941 18.5531 151.384 18.9035 150.605 18.7089C149.827 18.7089 148.853 16.5675 150.605 16.1782Z" fill="black" fill-opacity="0.8" stroke="black" stroke-opacity="0.8" stroke-width="0.389334"/>
<path d="M121.921 23.8143V16.8063H117.444V23.8143C117.639 24.7877 117.639 25.5663 119.585 25.761C121.143 25.9167 121.791 24.5281 121.921 23.8143Z" fill="#0FA3B1" fill-opacity="0.8" stroke="black" stroke-opacity="0.8" stroke-width="0.389334"/>
<path d="M121.921 24.3152V19.1423H117.639V24.3152C117.825 25.0337 117.825 25.6084 119.687 25.7521C121.176 25.867 121.797 24.842 121.921 24.3152Z" fill="#E14A4A" fill-opacity="0.8" stroke="black" stroke-opacity="0.8" stroke-width="0.389334"/>
<path d="M121.921 24.6554V20.6996H117.639V24.6554C117.825 25.2048 117.825 25.6443 119.687 25.7542C121.176 25.8421 121.797 25.0583 121.921 24.6554Z" fill="#E14A4A" fill-opacity="0.8" stroke="black" stroke-opacity="0.8" stroke-width="0.389334"/>
<path d="M121.921 24.9956V22.257H117.639V24.9956C117.825 25.3759 117.825 25.6802 119.687 25.7563C121.176 25.8171 121.797 25.2745 121.921 24.9956Z" fill="#0FA3B1" fill-opacity="0.8" stroke="black" stroke-opacity="0.8" stroke-width="0.389334"/>
<path d="M123.479 10.1876C121.454 11.2777 121.338 15.0543 121.532 16.8063H118.028C118.028 14.9894 117.989 11.122 116.276 10.1876C114.563 9.2532 113.616 10.5769 113.356 11.3556C113.681 11.0312 114.446 10.6548 114.914 11.7449C115.381 12.8351 114.33 13.7565 113.746 14.0809C112.902 14.3405 111.137 14.2367 110.826 11.7449C110.514 9.2532 112.383 8.24093 113.356 8.04627C114.602 7.57907 116.99 9.0196 118.028 9.79827C116.627 7.92947 116.536 4.99648 116.666 3.76359C116.51 2.98493 117.639 1.88181 118.223 1.42759C118.807 0.97337 120.403 0.493191 122.116 2.20626C123.829 3.91933 122.441 7.98138 121.532 9.79827C121.922 9.34404 123.245 8.35773 125.426 8.04627C127.606 7.7348 128.67 10.1227 128.93 11.3556C129.124 12.1343 128.346 13.8863 127.567 14.0809C126.788 14.2756 125.036 14.6649 124.647 12.9129C124.335 11.5113 125.555 11.2907 126.204 11.3556C125.893 9.64253 124.258 9.86316 123.479 10.1876Z" fill="url(#paint5_linear_1619_14264)" stroke="black" stroke-opacity="0.8" stroke-width="0.389334"/>
<path d="M121.727 16.8063C122.35 14.9375 123.803 13.1725 124.452 12.5236C124.452 11.2777 125.62 11.2258 126.204 11.3556C125.737 9.79827 124.841 9.79827 124.452 9.99293C121.493 10.1487 121.402 14.6 121.727 16.8063Z" fill="black" fill-opacity="0.8" stroke="black" stroke-opacity="0.8" stroke-width="0.389334"/>
<path d="M117.901 16.5675C117.278 14.6987 115.824 12.9337 115.175 12.2848C115.175 11.039 114.007 10.9871 113.423 11.1168C113.891 9.5595 114.786 9.5595 115.175 9.75416C118.134 9.9099 118.225 14.3613 117.901 16.5675Z" fill="black" fill-opacity="0.8" stroke="black" stroke-opacity="0.8" stroke-width="0.389334"/>
<path d="M125.621 16.0276C124.219 15.7161 124.258 13.6916 124.453 12.7182L123.285 13.8862V15.4436C123.285 18.4025 124.842 18.7529 125.621 18.5582C126.399 18.5582 127.373 16.4169 125.621 16.0276Z" fill="black" fill-opacity="0.8" stroke="black" stroke-opacity="0.8" stroke-width="0.389334"/>
<path d="M114.007 16.1782C115.409 15.8667 115.37 13.8422 115.175 12.8689L116.343 14.0368V15.5942C116.343 18.5531 114.786 18.9035 114.007 18.7089C113.228 18.7089 112.255 16.5675 114.007 16.1782Z" fill="black" fill-opacity="0.8" stroke="black" stroke-opacity="0.8" stroke-width="0.389334"/>
<path d="M85.3246 23.8143V16.8063H80.8472V23.8143C81.0419 24.7877 81.0419 25.5663 82.9886 25.761C84.5459 25.9167 85.1948 24.5281 85.3246 23.8143Z" fill="#0FA3B1" fill-opacity="0.8" stroke="black" stroke-opacity="0.8" stroke-width="0.389334"/>
<path d="M85.3246 24.3152V19.1423H81.0419V24.3152C81.2281 25.0337 81.2281 25.6084 83.0901 25.7521C84.5798 25.867 85.2004 24.842 85.3246 24.3152Z" fill="#E14A4A" fill-opacity="0.8" stroke="black" stroke-opacity="0.8" stroke-width="0.389334"/>
<path d="M85.3246 24.6554V20.6996H81.0419V24.6554C81.2281 25.2048 81.2281 25.6443 83.0901 25.7542C84.5798 25.8421 85.2004 25.0583 85.3246 24.6554Z" fill="#E14A4A" fill-opacity="0.8" stroke="black" stroke-opacity="0.8" stroke-width="0.389334"/>
<path d="M85.3246 24.9956V22.257H81.0419V24.9956C81.2281 25.3759 81.2281 25.6802 83.0901 25.7563C84.5798 25.8171 85.2004 25.2745 85.3246 24.9956Z" fill="#0FA3B1" fill-opacity="0.8" stroke="black" stroke-opacity="0.8" stroke-width="0.389334"/>
<path d="M86.8822 10.1876C84.8577 11.2777 84.7409 15.0543 84.9356 16.8063H81.4316C81.4316 14.9894 81.3927 11.122 79.6796 10.1876C77.9665 9.2532 77.0191 10.5769 76.7596 11.3556C77.084 11.0312 77.8497 10.6548 78.3169 11.7449C78.7841 12.8351 77.7329 13.7565 77.1489 14.0809C76.3054 14.3405 74.5404 14.2367 74.2289 11.7449C73.9174 9.2532 75.7862 8.24093 76.7596 8.04627C78.0054 7.57907 80.3934 9.0196 81.4316 9.79827C80.03 7.92947 79.9391 4.99648 80.0689 3.76359C79.9132 2.98493 81.0423 1.88181 81.6263 1.42759C82.2103 0.97337 83.8065 0.493191 85.5196 2.20626C87.2327 3.91933 85.844 7.98138 84.9356 9.79827C85.3249 9.34404 86.6487 8.35773 88.8289 8.04627C91.0092 7.7348 92.0734 10.1227 92.3329 11.3556C92.5276 12.1343 91.7489 13.8863 90.9702 14.0809C90.1916 14.2756 88.4396 14.6649 88.0502 12.9129C87.7388 11.5113 88.9587 11.2907 89.6076 11.3556C89.2961 9.64253 87.6609 9.86316 86.8822 10.1876Z" fill="url(#paint6_linear_1619_14264)" stroke="black" stroke-opacity="0.8" stroke-width="0.389334"/>
<path d="M85.1301 16.8063C85.753 14.9375 87.2065 13.1725 87.8554 12.5236C87.8554 11.2777 89.0234 11.2258 89.6074 11.3556C89.1402 9.79827 88.2448 9.79827 87.8554 9.99293C84.8965 10.1487 84.8056 14.6 85.1301 16.8063Z" fill="black" fill-opacity="0.8" stroke="black" stroke-opacity="0.8" stroke-width="0.389334"/>
<path d="M81.3041 16.5675C80.6812 14.6987 79.2277 12.9337 78.5788 12.2848C78.5788 11.039 77.4108 10.9871 76.8268 11.1168C77.294 9.5595 78.1895 9.5595 78.5788 9.75416C81.5377 9.9099 81.6286 14.3613 81.3041 16.5675Z" fill="black" fill-opacity="0.8" stroke="black" stroke-opacity="0.8" stroke-width="0.389334"/>
<path d="M89.0241 16.0277C87.6225 15.7162 87.6615 13.6917 87.8561 12.7184L86.6881 13.8863V15.4437C86.6881 18.4026 88.2454 18.753 89.0241 18.5584C89.8028 18.5584 90.7761 16.417 89.0241 16.0277Z" fill="black" fill-opacity="0.8" stroke="black" stroke-opacity="0.8" stroke-width="0.389334"/>
<path d="M77.4104 16.1782C78.812 15.8667 78.7731 13.8422 78.5784 12.8689L79.7465 14.0368V15.5942C79.7465 18.5531 78.1891 18.9035 77.4104 18.7089C76.6318 18.7089 75.6584 16.5675 77.4104 16.1782Z" fill="black" fill-opacity="0.8" stroke="black" stroke-opacity="0.8" stroke-width="0.389334"/>
<path d="M48.7269 23.8143V16.8063H44.2496V23.8143C44.4443 24.7877 44.4443 25.5663 46.3909 25.761C47.9483 25.9167 48.5972 24.5281 48.7269 23.8143Z" fill="#0FA3B1" fill-opacity="0.8" stroke="black" stroke-opacity="0.8" stroke-width="0.389334"/>
<path d="M48.7269 24.3152V19.1423H44.4443V24.3152C44.6305 25.0337 44.6305 25.6084 46.4925 25.7521C47.9821 25.867 48.6028 24.842 48.7269 24.3152Z" fill="#E14A4A" fill-opacity="0.8" stroke="black" stroke-opacity="0.8" stroke-width="0.389334"/>
<path d="M48.7269 24.6554V20.6996H44.4443V24.6554C44.6305 25.2048 44.6305 25.6443 46.4925 25.7542C47.9821 25.8421 48.6028 25.0583 48.7269 24.6554Z" fill="#E14A4A" fill-opacity="0.8" stroke="black" stroke-opacity="0.8" stroke-width="0.389334"/>
<path d="M48.7269 24.9956V22.257H44.4443V24.9956C44.6305 25.3759 44.6305 25.6802 46.4925 25.7563C47.9821 25.8171 48.6028 25.2745 48.7269 24.9956Z" fill="#0FA3B1" fill-opacity="0.8" stroke="black" stroke-opacity="0.8" stroke-width="0.389334"/>
<path d="M50.2846 10.1876C48.26 11.2777 48.1432 15.0543 48.3379 16.8063H44.8339C44.8339 14.9894 44.795 11.122 43.0819 10.1876C41.3689 9.2532 40.4215 10.5769 40.1619 11.3556C40.4864 11.0312 41.2521 10.6548 41.7193 11.7449C42.1865 12.8351 41.1353 13.7565 40.5513 14.0809C39.7077 14.3405 37.9427 14.2367 37.6313 11.7449C37.3198 9.2532 39.1886 8.24093 40.1619 8.04627C41.4078 7.57907 43.7957 9.0196 44.8339 9.79827C43.4323 7.92947 43.3415 4.99648 43.4713 3.76359C43.3155 2.98493 44.4446 1.88181 45.0286 1.42759C45.6126 0.97337 47.2089 0.493191 48.9219 2.20626C50.635 3.91933 49.2464 7.98138 48.3379 9.79827C48.7272 9.34404 50.051 8.35773 52.2313 8.04627C54.4115 7.7348 55.4757 10.1227 55.7352 11.3556C55.9299 12.1343 55.1512 13.8863 54.3726 14.0809C53.5939 14.2756 51.8419 14.6649 51.4526 12.9129C51.1411 11.5113 52.361 11.2907 53.0099 11.3556C52.6984 9.64253 51.0632 9.86316 50.2846 10.1876Z" fill="url(#paint7_linear_1619_14264)" stroke="black" stroke-opacity="0.8" stroke-width="0.389334"/>
<path d="M48.5324 16.8063C49.1554 14.9375 50.6089 13.1725 51.2578 12.5236C51.2578 11.2777 52.4258 11.2258 53.0098 11.3556C52.5426 9.79827 51.6471 9.79827 51.2578 9.99293C48.2988 10.1487 48.208 14.6 48.5324 16.8063Z" fill="black" fill-opacity="0.8" stroke="black" stroke-opacity="0.8" stroke-width="0.389334"/>
<path d="M44.7065 16.5675C44.0835 14.6987 42.63 12.9337 41.9811 12.2848C41.9811 11.039 40.8131 10.9871 40.2291 11.1168C40.6963 9.5595 41.5918 9.5595 41.9811 9.75416C44.9401 9.9099 45.0309 14.3613 44.7065 16.5675Z" fill="black" fill-opacity="0.8" stroke="black" stroke-opacity="0.8" stroke-width="0.389334"/>
<path d="M52.4265 16.0276C51.0249 15.7161 51.0638 13.6916 51.2585 12.7182L50.0904 13.8862V15.4436C50.0904 18.4025 51.6478 18.7529 52.4265 18.5582C53.2051 18.5582 54.1785 16.4169 52.4265 16.0276Z" fill="black" fill-opacity="0.8" stroke="black" stroke-opacity="0.8" stroke-width="0.389334"/>
<path d="M40.8128 16.1782C42.2144 15.8667 42.1755 13.8422 41.9808 12.8689L43.1488 14.0368V15.5942C43.1488 18.5531 41.5915 18.9035 40.8128 18.7089C40.0341 18.7089 39.0608 16.5675 40.8128 16.1782Z" fill="black" fill-opacity="0.8" stroke="black" stroke-opacity="0.8" stroke-width="0.389334"/>
<path d="M12.1302 23.8143V16.8063H7.65291L7.65291 23.8143C7.84758 24.7877 7.84758 25.5663 9.79425 25.761C11.3516 25.9167 12.0005 24.5281 12.1302 23.8143Z" fill="#0FA3B1" fill-opacity="0.8" stroke="black" stroke-opacity="0.8" stroke-width="0.389334"/>
<path d="M12.1302 24.3152V19.1423H7.84758L7.84758 24.3152C8.03378 25.0337 8.03378 25.6084 9.89581 25.7521C11.3854 25.867 12.0061 24.842 12.1302 24.3152Z" fill="#E14A4A" fill-opacity="0.8" stroke="black" stroke-opacity="0.8" stroke-width="0.389334"/>
<path d="M12.1302 24.6554V20.6996H7.84758V24.6554C8.03378 25.2048 8.03378 25.6443 9.89581 25.7542C11.3854 25.8421 12.0061 25.0583 12.1302 24.6554Z" fill="#E14A4A" fill-opacity="0.8" stroke="black" stroke-opacity="0.8" stroke-width="0.389334"/>
<path d="M12.1302 24.9956V22.257H7.84758V24.9956C8.03378 25.3759 8.03378 25.6802 9.89581 25.7563C11.3854 25.8171 12.0061 25.2745 12.1302 24.9956Z" fill="#0FA3B1" fill-opacity="0.8" stroke="black" stroke-opacity="0.8" stroke-width="0.389334"/>
<path d="M13.6879 10.1876C11.6634 11.2777 11.5466 15.0543 11.7412 16.8063H8.23725C8.23725 14.9894 8.19832 11.122 6.48525 10.1876C4.77218 9.2532 3.8248 10.5769 3.56525 11.3556C3.88969 11.0312 4.65538 10.6548 5.12258 11.7449C5.58978 12.8351 4.53858 13.7565 3.95458 14.0809C3.11102 14.3405 1.34604 14.2367 1.03458 11.7449C0.723108 9.2532 2.59191 8.24093 3.56525 8.04627C4.81111 7.57907 7.19903 9.0196 8.23725 9.79827C6.83565 7.92947 6.7448 4.99648 6.87458 3.76359C6.71885 2.98493 7.84792 1.88181 8.43192 1.42759C9.01592 0.97337 10.6122 0.493191 12.3253 2.20626C14.0383 3.91933 12.6497 7.98138 11.7412 9.79827C12.1306 9.34404 13.4543 8.35773 15.6346 8.04627C17.8149 7.7348 18.879 10.1227 19.1386 11.3556C19.3332 12.1343 18.5546 13.8863 17.7759 14.0809C16.9972 14.2756 15.2452 14.6649 14.8559 12.9129C14.5444 11.5113 15.7643 11.2907 16.4132 11.3556C16.1018 9.64253 14.4666 9.86316 13.6879 10.1876Z" fill="url(#paint8_linear_1619_14264)" stroke="black" stroke-opacity="0.8" stroke-width="0.389334"/>
<path d="M11.9357 16.8063C12.5587 14.9375 14.0122 13.1725 14.6611 12.5236C14.6611 11.2777 15.8291 11.2258 16.4131 11.3556C15.9459 9.79827 15.0504 9.79827 14.6611 9.99293C11.7021 10.1487 11.6113 14.6 11.9357 16.8063Z" fill="black" fill-opacity="0.8" stroke="black" stroke-opacity="0.8" stroke-width="0.389334"/>
<path d="M8.10978 16.5675C7.48685 14.6987 6.03334 12.9337 5.38445 12.2848C5.38445 11.039 4.21645 10.9871 3.63245 11.1168C4.09965 9.5595 4.99511 9.5595 5.38445 9.75416C8.34339 9.9099 8.43423 14.3613 8.10978 16.5675Z" fill="black" fill-opacity="0.8" stroke="black" stroke-opacity="0.8" stroke-width="0.389334"/>
<path d="M15.8298 16.0277C14.4282 15.7162 14.4671 13.6917 14.6618 12.7184L13.4938 13.8863V15.4437C13.4938 18.4026 15.0511 18.753 15.8298 18.5584C16.6085 18.5584 17.5818 16.417 15.8298 16.0277Z" fill="black" fill-opacity="0.8" stroke="black" stroke-opacity="0.8" stroke-width="0.389334"/>
<path d="M4.21611 16.1782C5.61771 15.8667 5.57878 13.8422 5.38411 12.8689L6.55215 14.0368V15.5942C6.55215 18.5531 4.99479 18.9035 4.21611 18.7089C3.43744 18.7089 2.46411 16.5675 4.21611 16.1782Z" fill="black" fill-opacity="0.8" stroke="black" stroke-opacity="0.8" stroke-width="0.389334"/>
<path d="M286.609 25.9296V32.9376H282.131V25.9296C282.326 24.9562 282.326 24.1776 284.273 23.9829C285.83 23.8272 286.479 25.2158 286.609 25.9296Z" fill="#0FA3B1" fill-opacity="0.8" stroke="black" stroke-opacity="0.8" stroke-width="0.389334"/>
<path d="M286.609 25.4287V30.6016H282.326V25.4287C282.512 24.7102 282.512 24.1355 284.374 23.9918C285.864 23.8769 286.485 24.9019 286.609 25.4287Z" fill="#E14A4A" fill-opacity="0.8" stroke="black" stroke-opacity="0.8" stroke-width="0.389334"/>
<path d="M286.609 25.0885V29.0442H282.326V25.0885C282.512 24.5391 282.512 24.0996 284.374 23.9897C285.864 23.9018 286.485 24.6856 286.609 25.0885Z" fill="#E14A4A" fill-opacity="0.8" stroke="black" stroke-opacity="0.8" stroke-width="0.389334"/>
<path d="M286.609 24.7483V27.4869H282.326V24.7483C282.512 24.368 282.512 24.0637 284.374 23.9876C285.864 23.9268 286.485 24.4694 286.609 24.7483Z" fill="#0FA3B1" fill-opacity="0.8" stroke="black" stroke-opacity="0.8" stroke-width="0.389334"/>
<path d="M288.166 39.5563C286.142 38.4662 286.025 34.6896 286.22 32.9376H282.716C282.716 34.7545 282.677 38.6219 280.964 39.5563C279.251 40.4907 278.303 39.167 278.044 38.3883C278.368 38.7127 279.134 39.0891 279.601 37.999C280.068 36.9088 279.017 35.9874 278.433 35.663C277.59 35.4034 275.825 35.5072 275.513 37.999C275.202 40.4907 277.07 41.503 278.044 41.6976C279.29 42.1648 281.678 40.7243 282.716 39.9456C281.314 41.8144 281.223 44.7474 281.353 45.9803C281.197 46.759 282.326 47.8621 282.91 48.3163C283.494 48.7705 285.091 49.2507 286.804 47.5376C288.517 45.8246 287.128 41.7625 286.22 39.9456C286.609 40.3999 287.933 41.3862 290.113 41.6976C292.293 42.0091 293.358 39.6212 293.617 38.3883C293.812 37.6096 293.033 35.8576 292.254 35.663C291.476 35.4683 289.724 35.079 289.334 36.831C289.023 38.2326 290.243 38.4532 290.892 38.3883C290.58 40.1014 288.945 39.8807 288.166 39.5563Z" fill="url(#paint9_linear_1619_14264)" stroke="black" stroke-opacity="0.8" stroke-width="0.389334"/>
<path d="M286.414 32.9376C287.037 34.8064 288.491 36.5714 289.14 37.2203C289.14 38.4662 290.308 38.5181 290.892 38.3883C290.424 39.9456 289.529 39.9456 289.14 39.751C286.181 39.5952 286.09 35.1438 286.414 32.9376Z" fill="black" fill-opacity="0.8" stroke="black" stroke-opacity="0.8" stroke-width="0.389334"/>
<path d="M282.588 33.1764C281.965 35.0452 280.512 36.8102 279.863 37.4591C279.863 38.7049 278.695 38.7568 278.111 38.6271C278.578 40.1844 279.474 40.1844 279.863 39.9897C282.822 39.834 282.913 35.3826 282.588 33.1764Z" fill="black" fill-opacity="0.8" stroke="black" stroke-opacity="0.8" stroke-width="0.389334"/>
<path d="M290.308 33.7162C288.907 34.0277 288.946 36.0522 289.14 37.0255L287.972 35.8576V34.3002C287.972 31.3413 289.53 30.9909 290.308 31.1855C291.087 31.1855 292.06 33.3269 290.308 33.7162Z" fill="black" fill-opacity="0.8" stroke="black" stroke-opacity="0.8" stroke-width="0.389334"/>
<path d="M278.695 33.5657C280.096 33.8772 280.057 35.9017 279.863 36.875L281.031 35.7071V34.1497C281.031 31.1908 279.473 30.8404 278.695 31.035C277.916 31.035 276.943 33.1764 278.695 33.5657Z" fill="black" fill-opacity="0.8" stroke="black" stroke-opacity="0.8" stroke-width="0.389334"/>
<path d="M250.013 25.9296V32.9376H245.536V25.9296C245.73 24.9562 245.73 24.1776 247.677 23.9829C249.234 23.8272 249.883 25.2158 250.013 25.9296Z" fill="#0FA3B1" fill-opacity="0.8" stroke="black" stroke-opacity="0.8" stroke-width="0.389334"/>
<path d="M250.013 25.4287V30.6016H245.73V25.4287C245.917 24.7102 245.917 24.1355 247.779 23.9918C249.268 23.8769 249.889 24.9019 250.013 25.4287Z" fill="#E14A4A" fill-opacity="0.8" stroke="black" stroke-opacity="0.8" stroke-width="0.389334"/>
<path d="M250.013 25.0885V29.0442H245.73V25.0885C245.917 24.5391 245.917 24.0996 247.779 23.9897C249.268 23.9018 249.889 24.6856 250.013 25.0885Z" fill="#E14A4A" fill-opacity="0.8" stroke="black" stroke-opacity="0.8" stroke-width="0.389334"/>
<path d="M250.013 24.7483V27.4869H245.73V24.7483C245.917 24.368 245.917 24.0637 247.779 23.9876C249.268 23.9268 249.889 24.4694 250.013 24.7483Z" fill="#0FA3B1" fill-opacity="0.8" stroke="black" stroke-opacity="0.8" stroke-width="0.389334"/>
<path d="M251.571 39.5563C249.546 38.4662 249.429 34.6896 249.624 32.9376H246.12C246.12 34.7545 246.081 38.6219 244.368 39.5563C242.655 40.4907 241.708 39.167 241.448 38.3883C241.773 38.7127 242.538 39.0891 243.005 37.999C243.473 36.9088 242.421 35.9874 241.837 35.663C240.994 35.4034 239.229 35.5072 238.917 37.999C238.606 40.4907 240.475 41.503 241.448 41.6976C242.694 42.1648 245.082 40.7243 246.12 39.9456C244.718 41.8144 244.628 44.7474 244.757 45.9803C244.602 46.759 245.731 47.8621 246.315 48.3163C246.899 48.7705 248.495 49.2507 250.208 47.5376C251.921 45.8246 250.532 41.7625 249.624 39.9456C250.013 40.3999 251.337 41.3862 253.517 41.6976C255.698 42.0091 256.762 39.6212 257.021 38.3883C257.216 37.6096 256.437 35.8576 255.659 35.663C254.88 35.4683 253.128 35.079 252.739 36.831C252.427 38.2326 253.647 38.4532 254.296 38.3883C253.985 40.1014 252.349 39.8807 251.571 39.5563Z" fill="url(#paint10_linear_1619_14264)" stroke="black" stroke-opacity="0.8" stroke-width="0.389334"/>
<path d="M249.819 32.9376C250.441 34.8064 251.895 36.5714 252.544 37.2203C252.544 38.4662 253.712 38.5181 254.296 38.3883C253.829 39.9456 252.933 39.9456 252.544 39.751C249.585 39.5952 249.494 35.1438 249.819 32.9376Z" fill="black" fill-opacity="0.8" stroke="black" stroke-opacity="0.8" stroke-width="0.389334"/>
<path d="M245.993 33.1764C245.37 35.0452 243.916 36.8102 243.267 37.4591C243.267 38.7049 242.099 38.7568 241.515 38.6271C241.982 40.1844 242.878 40.1844 243.267 39.9897C246.226 39.834 246.317 35.3826 245.993 33.1764Z" fill="black" fill-opacity="0.8" stroke="black" stroke-opacity="0.8" stroke-width="0.389334"/>
<path d="M253.713 33.7162C252.311 34.0277 252.35 36.0522 252.545 37.0255L251.377 35.8576V34.3002C251.377 31.3413 252.934 30.9909 253.713 31.1855C254.491 31.1855 255.465 33.3269 253.713 33.7162Z" fill="black" fill-opacity="0.8" stroke="black" stroke-opacity="0.8" stroke-width="0.389334"/>
<path d="M242.099 33.5657C243.501 33.8772 243.462 35.9017 243.267 36.875L244.435 35.7071V34.1497C244.435 31.1908 242.878 30.8404 242.099 31.035C241.32 31.035 240.347 33.1764 242.099 33.5657Z" fill="black" fill-opacity="0.8" stroke="black" stroke-opacity="0.8" stroke-width="0.389334"/>
<path d="M213.415 25.9296V32.9376H208.938V25.9296C209.133 24.9562 209.133 24.1776 211.079 23.9829C212.637 23.8272 213.286 25.2158 213.415 25.9296Z" fill="#0FA3B1" fill-opacity="0.8" stroke="black" stroke-opacity="0.8" stroke-width="0.389334"/>
<path d="M213.415 25.4287V30.6016H209.133V25.4287C209.319 24.7102 209.319 24.1355 211.181 23.9918C212.671 23.8769 213.291 24.9019 213.415 25.4287Z" fill="#E14A4A" fill-opacity="0.8" stroke="black" stroke-opacity="0.8" stroke-width="0.389334"/>
<path d="M213.415 25.0885V29.0442H209.133V25.0885C209.319 24.5391 209.319 24.0996 211.181 23.9897C212.671 23.9018 213.291 24.6856 213.415 25.0885Z" fill="#E14A4A" fill-opacity="0.8" stroke="black" stroke-opacity="0.8" stroke-width="0.389334"/>
<path d="M213.415 24.7483V27.4869H209.133V24.7483C209.319 24.368 209.319 24.0637 211.181 23.9876C212.671 23.9268 213.291 24.4694 213.415 24.7483Z" fill="#0FA3B1" fill-opacity="0.8" stroke="black" stroke-opacity="0.8" stroke-width="0.389334"/>
<path d="M214.973 39.5562C212.949 38.466 212.832 34.6895 213.026 32.9375H209.522C209.522 34.7544 209.483 38.6218 207.77 39.5562C206.057 40.4906 205.11 39.1668 204.85 38.3882C205.175 38.7126 205.941 39.089 206.408 37.9988C206.875 36.9087 205.824 35.9873 205.24 35.6628C204.396 35.4033 202.631 35.5071 202.32 37.9988C202.008 40.4906 203.877 41.5028 204.85 41.6975C206.096 42.1647 208.484 40.7242 209.522 39.9455C208.121 41.8143 208.03 44.7473 208.16 45.9802C208.004 46.7588 209.133 47.862 209.717 48.3162C210.301 48.7704 211.897 49.2506 213.61 47.5375C215.323 45.8244 213.935 41.7624 213.026 39.9455C213.416 40.3997 214.739 41.386 216.92 41.6975C219.1 42.009 220.164 39.6211 220.424 38.3882C220.618 37.6095 219.84 35.8575 219.061 35.6628C218.282 35.4682 216.53 35.0788 216.141 36.8308C215.83 38.2324 217.049 38.4531 217.698 38.3882C217.387 40.1012 215.752 39.8806 214.973 39.5562Z" fill="url(#paint11_linear_1619_14264)" stroke="black" stroke-opacity="0.8" stroke-width="0.389334"/>
<path d="M213.221 32.9375C213.844 34.8063 215.297 36.5713 215.946 37.2202C215.946 38.466 217.114 38.518 217.698 38.3882C217.231 39.9455 216.336 39.9455 215.946 39.7508C212.987 39.5951 212.897 35.1437 213.221 32.9375Z" fill="black" fill-opacity="0.8" stroke="black" stroke-opacity="0.8" stroke-width="0.389334"/>
<path d="M209.394 33.1764C208.771 35.0452 207.318 36.8102 206.669 37.4591C206.669 38.7049 205.501 38.7568 204.917 38.6271C205.384 40.1844 206.279 40.1844 206.669 39.9897C209.628 39.834 209.719 35.3826 209.394 33.1764Z" fill="black" fill-opacity="0.8" stroke="black" stroke-opacity="0.8" stroke-width="0.389334"/>
<path d="M217.115 33.7162C215.713 34.0277 215.752 36.0522 215.947 37.0255L214.779 35.8576V34.3002C214.779 31.3413 216.336 30.9909 217.115 31.1855C217.894 31.1855 218.867 33.3269 217.115 33.7162Z" fill="black" fill-opacity="0.8" stroke="black" stroke-opacity="0.8" stroke-width="0.389334"/>
<path d="M205.501 33.5657C206.903 33.8772 206.864 35.9017 206.669 36.875L207.837 35.7071V34.1497C207.837 31.1908 206.28 30.8404 205.501 31.035C204.723 31.035 203.749 33.1764 205.501 33.5657Z" fill="black" fill-opacity="0.8" stroke="black" stroke-opacity="0.8" stroke-width="0.389334"/>
<path d="M176.818 25.9296V32.9376H172.34V25.9296C172.535 24.9562 172.535 24.1776 174.482 23.9829C176.039 23.8272 176.688 25.2158 176.818 25.9296Z" fill="#0FA3B1" fill-opacity="0.8" stroke="black" stroke-opacity="0.8" stroke-width="0.389334"/>
<path d="M176.818 25.4287V30.6016H172.535V25.4287C172.721 24.7102 172.721 24.1355 174.583 23.9918C176.073 23.8769 176.693 24.9019 176.818 25.4287Z" fill="#E14A4A" fill-opacity="0.8" stroke="black" stroke-opacity="0.8" stroke-width="0.389334"/>
<path d="M176.818 25.0885V29.0442H172.535V25.0885C172.721 24.5391 172.721 24.0996 174.583 23.9897C176.073 23.9018 176.693 24.6856 176.818 25.0885Z" fill="#E14A4A" fill-opacity="0.8" stroke="black" stroke-opacity="0.8" stroke-width="0.389334"/>
<path d="M176.818 24.7483V27.4869H172.535V24.7483C172.721 24.368 172.721 24.0637 174.583 23.9876C176.073 23.9268 176.693 24.4694 176.818 24.7483Z" fill="#0FA3B1" fill-opacity="0.8" stroke="black" stroke-opacity="0.8" stroke-width="0.389334"/>
<path d="M178.375 39.5563C176.351 38.4662 176.234 34.6896 176.429 32.9376H172.925C172.925 34.7545 172.886 38.6219 171.173 39.5563C169.46 40.4907 168.512 39.167 168.253 38.3883C168.577 38.7127 169.343 39.0891 169.81 37.999C170.277 36.9088 169.226 35.9874 168.642 35.663C167.798 35.4034 166.033 35.5072 165.722 37.999C165.41 40.4907 167.279 41.503 168.253 41.6976C169.498 42.1648 171.886 40.7243 172.925 39.9456C171.523 41.8144 171.432 44.7474 171.562 45.9803C171.406 46.759 172.535 47.8621 173.119 48.3163C173.703 48.7705 175.3 49.2507 177.013 47.5376C178.726 45.8246 177.337 41.7625 176.429 39.9456C176.818 40.3999 178.142 41.3862 180.322 41.6976C182.502 42.0091 183.566 39.6212 183.826 38.3883C184.021 37.6096 183.242 35.8576 182.463 35.663C181.685 35.4683 179.933 35.079 179.543 36.831C179.232 38.2326 180.452 38.4532 181.101 38.3883C180.789 40.1014 179.154 39.8807 178.375 39.5563Z" fill="url(#paint12_linear_1619_14264)" stroke="black" stroke-opacity="0.8" stroke-width="0.389334"/>
<path d="M176.623 32.9376C177.246 34.8064 178.7 36.5714 179.349 37.2203C179.349 38.4662 180.517 38.5181 181.101 38.3883C180.633 39.9456 179.738 39.9456 179.349 39.751C176.39 39.5952 176.299 35.1438 176.623 32.9376Z" fill="black" fill-opacity="0.8" stroke="black" stroke-opacity="0.8" stroke-width="0.389334"/>
<path d="M172.797 33.1764C172.174 35.0452 170.721 36.8102 170.072 37.4591C170.072 38.7049 168.904 38.7568 168.32 38.6271C168.787 40.1844 169.682 40.1844 170.072 39.9897C173.031 39.834 173.122 35.3826 172.797 33.1764Z" fill="black" fill-opacity="0.8" stroke="black" stroke-opacity="0.8" stroke-width="0.389334"/>
<path d="M180.517 33.7162C179.116 34.0277 179.155 36.0522 179.349 37.0255L178.181 35.8576V34.3002C178.181 31.3413 179.739 30.9909 180.517 31.1855C181.296 31.1855 182.269 33.3269 180.517 33.7162Z" fill="black" fill-opacity="0.8" stroke="black" stroke-opacity="0.8" stroke-width="0.389334"/>
<path d="M168.903 33.5657C170.305 33.8772 170.266 35.9017 170.071 36.875L171.24 35.7071V34.1497C171.24 31.1908 169.682 30.8404 168.903 31.035C168.125 31.035 167.151 33.1764 168.903 33.5657Z" fill="black" fill-opacity="0.8" stroke="black" stroke-opacity="0.8" stroke-width="0.389334"/>
<path d="M140.221 25.9296V32.9376H135.744V25.9296C135.938 24.9562 135.938 24.1776 137.885 23.9829C139.442 23.8272 140.091 25.2158 140.221 25.9296Z" fill="#0FA3B1" fill-opacity="0.8" stroke="black" stroke-opacity="0.8" stroke-width="0.389334"/>
<path d="M140.221 25.4287V30.6016H135.938V25.4287C136.125 24.7102 136.125 24.1355 137.987 23.9918C139.476 23.8769 140.097 24.9019 140.221 25.4287Z" fill="#E14A4A" fill-opacity="0.8" stroke="black" stroke-opacity="0.8" stroke-width="0.389334"/>
<path d="M140.221 25.0885V29.0442H135.938V25.0885C136.125 24.5391 136.125 24.0996 137.987 23.9897C139.476 23.9018 140.097 24.6856 140.221 25.0885Z" fill="#E14A4A" fill-opacity="0.8" stroke="black" stroke-opacity="0.8" stroke-width="0.389334"/>
<path d="M140.221 24.7483V27.4869H135.938V24.7483C136.125 24.368 136.125 24.0637 137.987 23.9876C139.476 23.9268 140.097 24.4694 140.221 24.7483Z" fill="#0FA3B1" fill-opacity="0.8" stroke="black" stroke-opacity="0.8" stroke-width="0.389334"/>
<path d="M141.779 39.5563C139.754 38.4662 139.637 34.6896 139.832 32.9376H136.328C136.328 34.7545 136.289 38.6219 134.576 39.5563C132.863 40.4907 131.916 39.167 131.656 38.3883C131.981 38.7127 132.746 39.0891 133.213 37.999C133.681 36.9088 132.629 35.9874 132.045 35.663C131.202 35.4034 129.437 35.5072 129.125 37.999C128.814 40.4907 130.683 41.503 131.656 41.6976C132.902 42.1648 135.29 40.7243 136.328 39.9456C134.926 41.8144 134.836 44.7474 134.965 45.9803C134.81 46.759 135.939 47.8621 136.523 48.3163C137.107 48.7705 138.703 49.2507 140.416 47.5376C142.129 45.8246 140.741 41.7625 139.832 39.9456C140.221 40.3999 141.545 41.3862 143.725 41.6976C145.906 42.0091 146.97 39.6212 147.229 38.3883C147.424 37.6096 146.645 35.8576 145.867 35.663C145.088 35.4683 143.336 35.079 142.947 36.831C142.635 38.2326 143.855 38.4532 144.504 38.3883C144.193 40.1014 142.557 39.8807 141.779 39.5563Z" fill="url(#paint13_linear_1619_14264)" stroke="black" stroke-opacity="0.8" stroke-width="0.389334"/>
<path d="M140.027 32.9376C140.65 34.8064 142.103 36.5714 142.752 37.2203C142.752 38.4662 143.92 38.5181 144.504 38.3883C144.037 39.9456 143.141 39.9456 142.752 39.751C139.793 39.5952 139.702 35.1438 140.027 32.9376Z" fill="black" fill-opacity="0.8" stroke="black" stroke-opacity="0.8" stroke-width="0.389334"/>
<path d="M136.201 33.1764C135.578 35.0452 134.124 36.8102 133.475 37.4591C133.475 38.7049 132.307 38.7568 131.723 38.6271C132.19 40.1844 133.086 40.1844 133.475 39.9897C136.434 39.834 136.525 35.3826 136.201 33.1764Z" fill="black" fill-opacity="0.8" stroke="black" stroke-opacity="0.8" stroke-width="0.389334"/>
<path d="M143.921 33.7162C142.519 34.0277 142.558 36.0522 142.753 37.0255L141.585 35.8576V34.3002C141.585 31.3413 143.142 30.9909 143.921 31.1855C144.699 31.1855 145.673 33.3269 143.921 33.7162Z" fill="black" fill-opacity="0.8" stroke="black" stroke-opacity="0.8" stroke-width="0.389334"/>
<path d="M132.307 33.5657C133.709 33.8772 133.67 35.9017 133.475 36.875L134.643 35.7071V34.1497C134.643 31.1908 133.086 30.8404 132.307 31.035C131.528 31.035 130.555 33.1764 132.307 33.5657Z" fill="black" fill-opacity="0.8" stroke="black" stroke-opacity="0.8" stroke-width="0.389334"/>
<path d="M103.622 25.9296V32.9376H99.1451V25.9296C99.3398 24.9562 99.3398 24.1776 101.286 23.9829C102.844 23.8272 103.493 25.2158 103.622 25.9296Z" fill="#0FA3B1" fill-opacity="0.8" stroke="black" stroke-opacity="0.8" stroke-width="0.389334"/>
<path d="M103.622 25.4287V30.6016H99.3398V25.4287C99.526 24.7102 99.526 24.1355 101.388 23.9918C102.878 23.8769 103.498 24.9019 103.622 25.4287Z" fill="#E14A4A" fill-opacity="0.8" stroke="black" stroke-opacity="0.8" stroke-width="0.389334"/>
<path d="M103.622 25.0885V29.0442H99.3398V25.0885C99.526 24.5391 99.526 24.0996 101.388 23.9897C102.878 23.9018 103.498 24.6856 103.622 25.0885Z" fill="#E14A4A" fill-opacity="0.8" stroke="black" stroke-opacity="0.8" stroke-width="0.389334"/>
<path d="M103.622 24.7483V27.4869H99.3398V24.7483C99.526 24.368 99.526 24.0637 101.388 23.9876C102.878 23.9268 103.498 24.4694 103.622 24.7483Z" fill="#0FA3B1" fill-opacity="0.8" stroke="black" stroke-opacity="0.8" stroke-width="0.389334"/>
<path d="M105.18 39.5563C103.156 38.4662 103.039 34.6896 103.233 32.9376H99.7294C99.7294 34.7545 99.6905 38.6219 97.9774 39.5563C96.2644 40.4907 95.317 39.167 95.0574 38.3883C95.3819 38.7127 96.1476 39.0891 96.6148 37.999C97.082 36.9088 96.0308 35.9874 95.4468 35.663C94.6032 35.4034 92.8382 35.5072 92.5268 37.999C92.2153 40.4907 94.0841 41.503 95.0574 41.6976C96.3033 42.1648 98.6912 40.7243 99.7294 39.9456C98.3278 41.8144 98.237 44.7474 98.3668 45.9803C98.211 46.759 99.3401 47.8621 99.9241 48.3163C100.508 48.7705 102.104 49.2507 103.817 47.5376C105.531 45.8246 104.142 41.7625 103.233 39.9456C103.623 40.3999 104.947 41.3862 107.127 41.6976C109.307 42.0091 110.371 39.6212 110.631 38.3883C110.825 37.6096 110.047 35.8576 109.268 35.663C108.489 35.4683 106.737 35.079 106.348 36.831C106.037 38.2326 107.257 38.4532 107.905 38.3883C107.594 40.1014 105.959 39.8807 105.18 39.5563Z" fill="url(#paint14_linear_1619_14264)" stroke="black" stroke-opacity="0.8" stroke-width="0.389334"/>
<path d="M103.428 32.9376C104.051 34.8064 105.504 36.5714 106.153 37.2203C106.153 38.4662 107.321 38.5181 107.905 38.3883C107.438 39.9456 106.543 39.9456 106.153 39.751C103.194 39.5952 103.103 35.1438 103.428 32.9376Z" fill="black" fill-opacity="0.8" stroke="black" stroke-opacity="0.8" stroke-width="0.389334"/>
<path d="M99.602 33.1764C98.979 35.0452 97.5255 36.8102 96.8766 37.4591C96.8766 38.7049 95.7086 38.7568 95.1246 38.6271C95.5918 40.1844 96.4873 40.1844 96.8766 39.9897C99.8356 39.834 99.9264 35.3826 99.602 33.1764Z" fill="black" fill-opacity="0.8" stroke="black" stroke-opacity="0.8" stroke-width="0.389334"/>
<path d="M107.322 33.7162C105.92 34.0277 105.959 36.0522 106.154 37.0255L104.986 35.8576V34.3002C104.986 31.3413 106.543 30.9909 107.322 31.1855C108.101 31.1855 109.074 33.3269 107.322 33.7162Z" fill="black" fill-opacity="0.8" stroke="black" stroke-opacity="0.8" stroke-width="0.389334"/>
<path d="M95.7083 33.5657C97.1099 33.8772 97.071 35.9017 96.8763 36.875L98.0443 35.7071V34.1497C98.0443 31.1908 96.487 30.8404 95.7083 31.035C94.9296 31.035 93.9563 33.1764 95.7083 33.5657Z" fill="black" fill-opacity="0.8" stroke="black" stroke-opacity="0.8" stroke-width="0.389334"/>
<path d="M67.0262 25.9296V32.9376H62.5489V25.9296C62.7436 24.9562 62.7436 24.1776 64.6902 23.9829C66.2476 23.8272 66.8965 25.2158 67.0262 25.9296Z" fill="#0FA3B1" fill-opacity="0.8" stroke="black" stroke-opacity="0.8" stroke-width="0.389334"/>
<path d="M67.0262 25.4289V30.6017H62.7436V25.4289C62.9298 24.7103 62.9298 24.1356 64.7918 23.9919C66.2814 23.877 66.9021 24.902 67.0262 25.4289Z" fill="#E14A4A" fill-opacity="0.8" stroke="black" stroke-opacity="0.8" stroke-width="0.389334"/>
<path d="M67.0262 25.0887V29.0444H62.7436V25.0887C62.9298 24.5392 62.9298 24.0997 64.7918 23.9899C66.2814 23.9019 66.9021 24.6858 67.0262 25.0887Z" fill="#E14A4A" fill-opacity="0.8" stroke="black" stroke-opacity="0.8" stroke-width="0.389334"/>
<path d="M67.0262 24.7485V27.487H62.7436V24.7485C62.9298 24.3681 62.9298 24.0638 64.7918 23.9878C66.2814 23.9269 66.9021 24.4695 67.0262 24.7485Z" fill="#0FA3B1" fill-opacity="0.8" stroke="black" stroke-opacity="0.8" stroke-width="0.389334"/>
<path d="M68.5839 39.5563C66.5594 38.4662 66.4426 34.6896 66.6372 32.9376H63.1332C63.1332 34.7545 63.0943 38.6219 61.3812 39.5563C59.6682 40.4907 58.7208 39.167 58.4612 38.3883C58.7857 38.7127 59.5514 39.0891 60.0186 37.999C60.4858 36.9088 59.4346 35.9874 58.8506 35.663C58.007 35.4034 56.242 35.5072 55.9306 37.999C55.6191 40.4907 57.4879 41.503 58.4612 41.6976C59.7071 42.1648 62.095 40.7243 63.1332 39.9456C61.7316 41.8144 61.6408 44.7474 61.7706 45.9803C61.6148 46.759 62.7439 47.8621 63.3279 48.3163C63.9119 48.7705 65.5082 49.2507 67.2213 47.5376C68.9343 45.8246 67.5457 41.7625 66.6372 39.9456C67.0266 40.3999 68.3503 41.3862 70.5306 41.6976C72.7109 42.0091 73.775 39.6212 74.0346 38.3883C74.2292 37.6096 73.4506 35.8576 72.6719 35.663C71.8932 35.4683 70.1412 35.079 69.7519 36.831C69.4404 38.2326 70.6603 38.4532 71.3092 38.3883C70.9978 40.1014 69.3626 39.8807 68.5839 39.5563Z" fill="url(#paint15_linear_1619_14264)" stroke="black" stroke-opacity="0.8" stroke-width="0.389334"/>
<path d="M66.8317 32.9376C67.4547 34.8064 68.9082 36.5714 69.5571 37.2203C69.5571 38.4662 70.7251 38.5181 71.3091 38.3883C70.8419 39.9456 69.9464 39.9456 69.5571 39.751C66.5981 39.5952 66.5073 35.1438 66.8317 32.9376Z" fill="black" fill-opacity="0.8" stroke="black" stroke-opacity="0.8" stroke-width="0.389334"/>
<path d="M63.0058 33.1765C62.3828 35.0453 60.9293 36.8103 60.2804 37.4592C60.2804 38.7051 59.1124 38.757 58.5284 38.6272C58.9956 40.1845 59.8911 40.1845 60.2804 39.9899C63.2394 39.8341 63.3302 35.3827 63.0058 33.1765Z" fill="black" fill-opacity="0.8" stroke="black" stroke-opacity="0.8" stroke-width="0.389334"/>
<path d="M70.7258 33.7162C69.3242 34.0277 69.3631 36.0522 69.5578 37.0255L68.3897 35.8576V34.3002C68.3897 31.3413 69.9471 30.9909 70.7258 31.1855C71.5045 31.1855 72.4778 33.3269 70.7258 33.7162Z" fill="black" fill-opacity="0.8" stroke="black" stroke-opacity="0.8" stroke-width="0.389334"/>
<path d="M59.1121 33.5657C60.5137 33.8772 60.4748 35.9017 60.2801 36.875L61.4481 35.7071V34.1497C61.4481 31.1908 59.8908 30.8404 59.1121 31.035C58.3334 31.035 57.3601 33.1764 59.1121 33.5657Z" fill="black" fill-opacity="0.8" stroke="black" stroke-opacity="0.8" stroke-width="0.389334"/>
<path d="M30.4281 25.9296V32.9376H25.9508V25.9296C26.1454 24.9562 26.1454 24.1776 28.0921 23.9829C29.6494 23.8272 30.2983 25.2158 30.4281 25.9296Z" fill="#0FA3B1" fill-opacity="0.8" stroke="black" stroke-opacity="0.8" stroke-width="0.389334"/>
<path d="M30.4281 25.4287V30.6016H26.1454V25.4287C26.3316 24.7102 26.3316 24.1355 28.1937 23.9918C29.6833 23.8769 30.304 24.9019 30.4281 25.4287Z" fill="#E14A4A" fill-opacity="0.8" stroke="black" stroke-opacity="0.8" stroke-width="0.389334"/>
<path d="M30.4281 25.0885V29.0442H26.1454V25.0885C26.3316 24.5391 26.3316 24.0996 28.1937 23.9897C29.6833 23.9018 30.304 24.6856 30.4281 25.0885Z" fill="#E14A4A" fill-opacity="0.8" stroke="black" stroke-opacity="0.8" stroke-width="0.389334"/>
<path d="M30.4281 24.7483V27.4869H26.1454V24.7483C26.3316 24.368 26.3316 24.0637 28.1937 23.9876C29.6833 23.9268 30.304 24.4694 30.4281 24.7483Z" fill="#0FA3B1" fill-opacity="0.8" stroke="black" stroke-opacity="0.8" stroke-width="0.389334"/>
<path d="M31.9857 39.5563C29.9612 38.4662 29.8444 34.6896 30.0391 32.9376H26.5351C26.5351 34.7545 26.4962 38.6219 24.7831 39.5563C23.07 40.4907 22.1227 39.167 21.8631 38.3883C22.1875 38.7127 22.9532 39.0891 23.4204 37.999C23.8876 36.9088 22.8364 35.9874 22.2524 35.663C21.4089 35.4034 19.6439 35.5072 19.3324 37.999C19.021 40.4907 20.8898 41.503 21.8631 41.6976C23.109 42.1648 25.4969 40.7243 26.5351 39.9456C25.1335 41.8144 25.0427 44.7474 25.1724 45.9803C25.0167 46.759 26.1458 47.8621 26.7298 48.3163C27.3138 48.7705 28.91 49.2507 30.6231 47.5376C32.3362 45.8246 30.9475 41.7625 30.0391 39.9456C30.4284 40.3999 31.7522 41.3862 33.9324 41.6976C36.1127 42.0091 37.1769 39.6212 37.4364 38.3883C37.6311 37.6096 36.8524 35.8576 36.0738 35.663C35.2951 35.4683 33.5431 35.079 33.1537 36.831C32.8423 38.2326 34.0622 38.4532 34.7111 38.3883C34.3996 40.1014 32.7644 39.8807 31.9857 39.5563Z" fill="url(#paint16_linear_1619_14264)" stroke="black" stroke-opacity="0.8" stroke-width="0.389334"/>
<path d="M30.2336 32.9376C30.8565 34.8064 32.31 36.5714 32.9589 37.2203C32.9589 38.4662 34.1269 38.5181 34.7109 38.3883C34.2437 39.9456 33.3483 39.9456 32.9589 39.751C30 39.5952 29.9092 35.1438 30.2336 32.9376Z" fill="black" fill-opacity="0.8" stroke="black" stroke-opacity="0.8" stroke-width="0.389334"/>
<path d="M26.4076 33.1764C25.7847 35.0452 24.3312 36.8102 23.6823 37.4591C23.6823 38.7049 22.5143 38.7568 21.9303 38.6271C22.3975 40.1844 23.293 40.1844 23.6823 39.9897C26.6412 39.834 26.7321 35.3826 26.4076 33.1764Z" fill="black" fill-opacity="0.8" stroke="black" stroke-opacity="0.8" stroke-width="0.389334"/>
<path d="M34.1276 33.7162C32.726 34.0277 32.765 36.0522 32.9596 37.0255L31.7916 35.8576V34.3002C31.7916 31.3413 33.349 30.9909 34.1276 31.1855C34.9063 31.1855 35.8796 33.3269 34.1276 33.7162Z" fill="black" fill-opacity="0.8" stroke="black" stroke-opacity="0.8" stroke-width="0.389334"/>
<path d="M22.514 33.5657C23.9156 33.8772 23.8766 35.9017 23.682 36.875L24.85 35.7071V34.1497C24.85 31.1908 23.2926 30.8404 22.514 31.035C21.7353 31.035 20.762 33.1764 22.514 33.5657Z" fill="black" fill-opacity="0.8" stroke="black" stroke-opacity="0.8" stroke-width="0.389334"/>
<circle cx="283.916" cy="11.7571" r="1.94667" transform="rotate(-180 283.916 11.7571)" fill="#0FA3B1" fill-opacity="0.8"/>
<circle cx="283.916" cy="11.7571" r="1.752" transform="rotate(-180 283.916 11.7571)" stroke="black" stroke-opacity="0.8" stroke-width="0.389334"/>
<circle cx="248.096" cy="11.7571" r="1.94667" transform="rotate(-180 248.096 11.7571)" fill="#0FA3B1" fill-opacity="0.8"/>
<circle cx="248.096" cy="11.7571" r="1.752" transform="rotate(-180 248.096 11.7571)" stroke="black" stroke-opacity="0.8" stroke-width="0.389334"/>
<circle cx="212.278" cy="11.7571" r="1.94667" transform="rotate(-180 212.278 11.7571)" fill="#0FA3B1" fill-opacity="0.8"/>
<circle cx="212.278" cy="11.7571" r="1.752" transform="rotate(-180 212.278 11.7571)" stroke="black" stroke-opacity="0.8" stroke-width="0.389334"/>
<circle cx="176.458" cy="11.7571" r="1.94667" transform="rotate(-180 176.458 11.7571)" fill="#0FA3B1" fill-opacity="0.8"/>
<circle cx="176.458" cy="11.7571" r="1.752" transform="rotate(-180 176.458 11.7571)" stroke="black" stroke-opacity="0.8" stroke-width="0.389334"/>
<circle cx="140.641" cy="11.7571" r="1.94667" transform="rotate(-180 140.641 11.7571)" fill="#0FA3B1" fill-opacity="0.8"/>
<circle cx="140.641" cy="11.7571" r="1.752" transform="rotate(-180 140.641 11.7571)" stroke="black" stroke-opacity="0.8" stroke-width="0.389334"/>
<circle cx="104.822" cy="11.7571" r="1.94667" transform="rotate(-180 104.822 11.7571)" fill="#0FA3B1" fill-opacity="0.8"/>
<circle cx="104.822" cy="11.7571" r="1.752" transform="rotate(-180 104.822 11.7571)" stroke="black" stroke-opacity="0.8" stroke-width="0.389334"/>
<circle cx="69.0029" cy="11.7571" r="1.94667" transform="rotate(-180 69.0029 11.7571)" fill="#0FA3B1" fill-opacity="0.8"/>
<circle cx="69.0029" cy="11.7571" r="1.752" transform="rotate(-180 69.0029 11.7571)" stroke="black" stroke-opacity="0.8" stroke-width="0.389334"/>
<circle cx="33.1836" cy="11.7571" r="1.94667" transform="rotate(-180 33.1836 11.7571)" fill="#0FA3B1" fill-opacity="0.8"/>
<circle cx="33.1836" cy="11.7571" r="1.752" transform="rotate(-180 33.1836 11.7571)" stroke="black" stroke-opacity="0.8" stroke-width="0.389334"/>
<circle cx="302.993" cy="37.8425" r="1.94667" transform="rotate(-180 302.993 37.8425)" fill="#0FA3B1" fill-opacity="0.8"/>
<circle cx="302.993" cy="37.8425" r="1.752" transform="rotate(-180 302.993 37.8425)" stroke="black" stroke-opacity="0.8" stroke-width="0.389334"/>
<circle cx="267.173" cy="37.8425" r="1.94667" transform="rotate(-180 267.173 37.8425)" fill="#0FA3B1" fill-opacity="0.8"/>
<circle cx="267.173" cy="37.8425" r="1.752" transform="rotate(-180 267.173 37.8425)" stroke="black" stroke-opacity="0.8" stroke-width="0.389334"/>
<circle cx="231.355" cy="37.8425" r="1.94667" transform="rotate(-180 231.355 37.8425)" fill="#0FA3B1" fill-opacity="0.8"/>
<circle cx="231.355" cy="37.8425" r="1.752" transform="rotate(-180 231.355 37.8425)" stroke="black" stroke-opacity="0.8" stroke-width="0.389334"/>
<circle cx="195.537" cy="37.8425" r="1.94667" transform="rotate(-180 195.537 37.8425)" fill="#0FA3B1" fill-opacity="0.8"/>
<circle cx="195.537" cy="37.8425" r="1.752" transform="rotate(-180 195.537 37.8425)" stroke="black" stroke-opacity="0.8" stroke-width="0.389334"/>
<circle cx="159.718" cy="37.8425" r="1.94667" transform="rotate(-180 159.718 37.8425)" fill="#0FA3B1" fill-opacity="0.8"/>
<circle cx="159.718" cy="37.8425" r="1.752" transform="rotate(-180 159.718 37.8425)" stroke="black" stroke-opacity="0.8" stroke-width="0.389334"/>
<circle cx="123.899" cy="37.8425" r="1.94667" transform="rotate(-180 123.899 37.8425)" fill="#0FA3B1" fill-opacity="0.8"/>
<circle cx="123.899" cy="37.8425" r="1.752" transform="rotate(-180 123.899 37.8425)" stroke="black" stroke-opacity="0.8" stroke-width="0.389334"/>
<circle cx="88.0806" cy="37.8425" r="1.94667" transform="rotate(-180 88.0806 37.8425)" fill="#0FA3B1" fill-opacity="0.8"/>
<circle cx="88.0806" cy="37.8425" r="1.752" transform="rotate(-180 88.0806 37.8425)" stroke="black" stroke-opacity="0.8" stroke-width="0.389334"/>
<circle cx="52.2612" cy="37.8425" r="1.94667" transform="rotate(-180 52.2612 37.8425)" fill="#0FA3B1" fill-opacity="0.8"/>
<circle cx="52.2612" cy="37.8425" r="1.752" transform="rotate(-180 52.2612 37.8425)" stroke="black" stroke-opacity="0.8" stroke-width="0.389334"/>
<circle cx="16.4424" cy="37.8425" r="1.94667" transform="rotate(-180 16.4424 37.8425)" fill="#0FA3B1" fill-opacity="0.8"/>
<circle cx="16.4424" cy="37.8425" r="1.752" transform="rotate(-180 16.4424 37.8425)" stroke="black" stroke-opacity="0.8" stroke-width="0.389334"/>
</g>
<defs>
<linearGradient id="paint0_linear_1619_14264" x1="303.13" y1="18.7407" x2="303.13" y2="-1.44879" gradientUnits="userSpaceOnUse">
<stop offset="0.234375" stop-color="#FFD37C"/>
<stop offset="0.607292" stop-color="#D08123"/>
</linearGradient>
<linearGradient id="paint1_linear_1619_14264" x1="266.533" y1="18.7407" x2="266.533" y2="-1.44879" gradientUnits="userSpaceOnUse">
<stop offset="0.234375" stop-color="#FFD37C"/>
<stop offset="0.607292" stop-color="#D08123"/>
</linearGradient>
<linearGradient id="paint2_linear_1619_14264" x1="229.934" y1="18.7407" x2="229.934" y2="-1.44879" gradientUnits="userSpaceOnUse">
<stop offset="0.234375" stop-color="#FFD37C"/>
<stop offset="0.607292" stop-color="#D08123"/>
</linearGradient>
<linearGradient id="paint3_linear_1619_14264" x1="193.337" y1="18.7407" x2="193.337" y2="-1.44879" gradientUnits="userSpaceOnUse">
<stop offset="0.234375" stop-color="#FFD37C"/>
<stop offset="0.607292" stop-color="#D08123"/>
</linearGradient>
<linearGradient id="paint4_linear_1619_14264" x1="156.741" y1="18.7407" x2="156.741" y2="-1.44879" gradientUnits="userSpaceOnUse">
<stop offset="0.234375" stop-color="#FFD37C"/>
<stop offset="0.607292" stop-color="#D08123"/>
</linearGradient>
<linearGradient id="paint5_linear_1619_14264" x1="120.142" y1="18.7407" x2="120.142" y2="-1.44879" gradientUnits="userSpaceOnUse">
<stop offset="0.234375" stop-color="#FFD37C"/>
<stop offset="0.607292" stop-color="#D08123"/>
</linearGradient>
<linearGradient id="paint6_linear_1619_14264" x1="83.5457" y1="18.7407" x2="83.5457" y2="-1.44879" gradientUnits="userSpaceOnUse">
<stop offset="0.234375" stop-color="#FFD37C"/>
<stop offset="0.607292" stop-color="#D08123"/>
</linearGradient>
<linearGradient id="paint7_linear_1619_14264" x1="46.948" y1="18.7407" x2="46.948" y2="-1.44879" gradientUnits="userSpaceOnUse">
<stop offset="0.234375" stop-color="#FFD37C"/>
<stop offset="0.607292" stop-color="#D08123"/>
</linearGradient>
<linearGradient id="paint8_linear_1619_14264" x1="10.3513" y1="18.7407" x2="10.3513" y2="-1.44879" gradientUnits="userSpaceOnUse">
<stop offset="0.234375" stop-color="#FFD37C"/>
<stop offset="0.607292" stop-color="#D08123"/>
</linearGradient>
<linearGradient id="paint9_linear_1619_14264" x1="284.83" y1="31.0032" x2="284.83" y2="51.1927" gradientUnits="userSpaceOnUse">
<stop offset="0.234375" stop-color="#FFD37C"/>
<stop offset="0.607292" stop-color="#D08123"/>
</linearGradient>
<linearGradient id="paint10_linear_1619_14264" x1="248.234" y1="31.0032" x2="248.234" y2="51.1927" gradientUnits="userSpaceOnUse">
<stop offset="0.234375" stop-color="#FFD37C"/>
<stop offset="0.607292" stop-color="#D08123"/>
</linearGradient>
<linearGradient id="paint11_linear_1619_14264" x1="211.637" y1="31.0031" x2="211.637" y2="51.1926" gradientUnits="userSpaceOnUse">
<stop offset="0.234375" stop-color="#FFD37C"/>
<stop offset="0.607292" stop-color="#D08123"/>
</linearGradient>
<linearGradient id="paint12_linear_1619_14264" x1="175.039" y1="31.0032" x2="175.039" y2="51.1927" gradientUnits="userSpaceOnUse">
<stop offset="0.234375" stop-color="#FFD37C"/>
<stop offset="0.607292" stop-color="#D08123"/>
</linearGradient>
<linearGradient id="paint13_linear_1619_14264" x1="138.442" y1="31.0032" x2="138.442" y2="51.1927" gradientUnits="userSpaceOnUse">
<stop offset="0.234375" stop-color="#FFD37C"/>
<stop offset="0.607292" stop-color="#D08123"/>
</linearGradient>
<linearGradient id="paint14_linear_1619_14264" x1="101.844" y1="31.0032" x2="101.844" y2="51.1927" gradientUnits="userSpaceOnUse">
<stop offset="0.234375" stop-color="#FFD37C"/>
<stop offset="0.607292" stop-color="#D08123"/>
</linearGradient>
<linearGradient id="paint15_linear_1619_14264" x1="65.2473" y1="31.0032" x2="65.2473" y2="51.1927" gradientUnits="userSpaceOnUse">
<stop offset="0.234375" stop-color="#FFD37C"/>
<stop offset="0.607292" stop-color="#D08123"/>
</linearGradient>
<linearGradient id="paint16_linear_1619_14264" x1="28.6492" y1="31.0032" x2="28.6492" y2="51.1927" gradientUnits="userSpaceOnUse">
<stop offset="0.234375" stop-color="#FFD37C"/>
<stop offset="0.607292" stop-color="#D08123"/>
</linearGradient>
</defs>
</svg>
