<svg width="15" height="15" viewBox="0 0 15 15" fill="none" xmlns="http://www.w3.org/2000/svg">
<rect width="10.5817" height="10.5817" transform="matrix(0.707662 -0.706551 0.707662 0.706551 0 7.50009)" fill="#EFB628"/>
<path d="M15 7.50087C13.9599 7.22082 12.6409 7.05338 11.2059 7.05338C9.7735 7.05338 8.45679 7.22019 7.4176 7.49929C8.4577 7.77934 9.77666 7.94678 11.2117 7.94678C12.6441 7.94678 13.9608 7.77997 15 7.50087Z" fill="#5E5B0E"/>
<path d="M7.51177 7.50087C6.48459 7.22082 5.18201 7.05338 3.76478 7.05338C2.3502 7.05338 1.04984 7.22019 0.0235596 7.49929C1.05073 7.77934 2.35332 7.94678 3.77055 7.94678C5.18513 7.94678 6.48549 7.77997 7.51177 7.50087Z" fill="#5E5B0E"/>
<path d="M7.45077 7.57063C7.73197 6.8395 7.94652 3.6718 7.94652 2.66304C7.94652 1.65616 7.77902 0.730581 7.49877 9.15527e-05C7.21757 0.731218 7.04944 1.65838 7.04944 2.66715C7.04944 3.67402 7.17052 6.84014 7.45077 7.57063Z" fill="#5E5B0E"/>
<path d="M7.49792 7.42956C7.77912 8.15842 7.94568 11.3868 7.94568 12.3924C7.94568 13.3962 7.77767 14.2719 7.49742 15.0001C7.21621 14.2712 7.04858 13.394 7.04858 12.3883C7.04858 11.3846 7.21766 8.15778 7.49792 7.42956Z" fill="#5E5B0E"/>
<path d="M7.51178 7.47656C6.8019 7.82242 6.04315 8.39138 5.3549 9.13697C4.66795 9.88115 4.16218 10.6811 3.87415 11.4149C4.58403 11.069 5.34278 10.5001 6.03103 9.75449C6.71798 9.0103 7.22375 8.21034 7.51178 7.47656Z" fill="#C54E2C"/>
<path d="M11.0919 11.4149C10.3821 11.069 9.62331 10.5001 8.93506 9.7545C8.24811 9.01031 7.74234 8.21034 7.45431 7.47657C8.16419 7.82242 8.92294 8.39139 9.61119 9.13697C10.2981 9.88116 10.8039 10.6811 11.0919 11.4149Z" fill="#C54E2C"/>
<path d="M7.51264 7.55909C6.80276 7.21324 6.044 6.64427 5.35576 5.89869C4.6688 5.1545 4.16304 4.35453 3.875 3.62076C4.58488 3.96662 5.34364 4.53558 6.03188 5.28116C6.71884 6.02535 7.22461 6.82532 7.51264 7.55909Z" fill="#C54E2C"/>
<path d="M11.0928 3.62076C10.383 3.96662 9.6242 4.53558 8.93596 5.28116C8.249 6.02535 7.74324 6.82532 7.4552 7.55909C8.16508 7.21324 8.92384 6.64427 9.61208 5.89869C10.299 5.1545 10.8048 4.35453 11.0928 3.62076Z" fill="#C54E2C"/>
<ellipse cx="7.48825" cy="7.50007" rx="0.306123" ry="0.305643" fill="#5E5B0E"/>
</svg>
